<?xml version="1.0" standalone="no"?>
<!DOCTYPE svg PUBLIC "-//W3C//DTD SVG 1.1//EN" "http://www.w3.org/Graphics/SVG/1.1/DTD/svg11.dtd" >
<svg xmlns="http://www.w3.org/2000/svg">
<metadata>Generated by IcoMoon</metadata>
<defs>
<font id="icons" horiz-adv-x="1024">
<font-face units-per-em="1024" ascent="960" descent="-64" />
<missing-glyph horiz-adv-x="1024" />
<glyph unicode="&#x20;" horiz-adv-x="512" d="" />
<glyph unicode="&#xe600;" glyph-name="buzzfeed" d="M0 777.6c107.2 0 214.4 1.6 321.6-1.6 83.2-1.6 147.2-57.6 161.6-134.4 16-86.4-28.8-160-99.2-180.8-1.6 0-3.2-1.6-4.8-3.2 65.6-19.2 105.6-62.4 116.8-128 17.6-108.8-41.6-196.8-153.6-209.6-25.6-3.2-49.6-3.2-75.2-3.2-88 0-176 0-265.6 0-1.6 220.8-1.6 441.6-1.6 660.8zM142.4 243.2c1.6 0 3.2-1.6 4.8-1.6 44.8 0 89.6-1.6 132.8 0 46.4 1.6 73.6 30.4 73.6 72 1.6 41.6-24 72-68.8 76.8-28.8 3.2-57.6 1.6-86.4 1.6-19.2 0-38.4 0-57.6 0 1.6-49.6 1.6-97.6 1.6-148.8zM140.8 516.8c41.6 0 80 0 120 0 8 0 16 0 22.4 1.6 27.2 4.8 48 19.2 56 48 11.2 46.4-17.6 86.4-65.6 88-22.4 1.6-44.8 0-67.2 0-20.8 0-43.2 0-65.6 0 0-4.8-1.6-8-1.6-11.2 1.6-40 1.6-81.6 1.6-126.4zM564.8 118.4c0 219.2 0 438.4 0 659.2 152 0 304 0 457.6 0 0-22.4 0-43.2 0-64 0-14.4-1.6-28.8 0-43.2s-4.8-16-17.6-16c-91.2 0-180.8 0-272 0-9.6 0-17.6 0-28.8 0 0-46.4 0-91.2 0-139.2 4.8 0 11.2 0 17.6 0 68.8 0 136 0 204.8 0 14.4 0 17.6-4.8 16-17.6-1.6-35.2 0-68.8 0-105.6-80 0-158.4 0-238.4 0 0-92.8 0-182.4 0-275.2-46.4 1.6-91.2 1.6-139.2 1.6z" />
<glyph unicode="&#xe601;" glyph-name="heart" horiz-adv-x="1195" d="M136.307 568.502c-35.846 122.307 103.239 280.696 237.924 280.696 80.441 0 153.21-40.801 198.314-109.051l38.574-58.369 37.723 58.923c43.049 67.242 116.999 108.498 197.954 108.498 135.003 0 275.311-158.652 239.542-280.696-12.724-41.96-70.955-114.938-162.118-204.643-25.398-24.991-53.024-50.996-82.534-77.787-56.61-51.394-117.374-103.22-178.151-152.831-21.279-17.369-41.031-33.214-58.742-47.208-10.587-8.364-18.11-14.23-22.058-17.272h55.554c-3.932 3.029-11.426 8.873-21.973 17.208-17.645 13.944-37.323 29.735-58.523 47.048-60.551 49.449-121.089 101.124-177.487 152.391-29.713 27.009-57.507 53.222-83.028 78.406-90.808 89.608-148.612 162.515-160.972 204.688v0zM48.959 542.902c18.27-62.336 82.454-143.291 184.387-243.876 26.456-26.107 55.146-53.164 85.736-80.971 57.709-52.458 119.43-105.143 181.138-155.537 21.591-17.632 41.647-33.726 59.661-47.962 10.849-8.574 18.637-14.646 22.855-17.896l27.777-21.402 27.777 21.402c4.232 3.261 12.047 9.353 22.933 17.955 18.077 14.283 38.204 30.428 59.87 48.114 61.926 50.548 123.863 103.376 181.775 155.952 30.372 27.573 58.877 54.406 85.193 80.3 102.123 100.489 166.662 181.373 185.503 243.517 54.087 184.537-134.45 397.723-326.769 397.723-112.273 0-214.98-57.3-274.612-150.442l76.298 0.554c-61.635 93.264-162.626 149.889-274.252 149.889-192.137 0-379.264-213.098-325.271-397.319v0z" />
<glyph unicode="&#xe602;" glyph-name="plus" d="M455.054 512.519v439.020h91.022v-439.020h460.438v-91.022h-460.438v-460.438h-91.022v460.438h-439.020v91.022h439.020z" />
<glyph unicode="&#xe603;" glyph-name="chat-triangle" d="M0 857.6h1024v-819.2l-1024 819.2z" />
<glyph unicode="&#xe604;" glyph-name="check" d="M380.8-12.8c-33.6 0-65.6 12.8-84.8 36.8l-273.6 310.4c-35.2 40-25.6 97.6 20.8 128s113.6 22.4 150.4-17.6l179.2-204.8 452.8 625.6c32 43.2 97.6 56 147.2 28.8 51.2-25.6 65.6-83.2 35.2-126.4l-536-737.6c-19.2-25.6-51.2-41.6-86.4-43.2-1.6 0-3.2 0-4.8 0z" />
<glyph unicode="&#xe605;" glyph-name="facebook" d="M705.6 790.4h110.4v163.2c-17.6 1.6-83.2 6.4-160 6.4-160 0-268.8-84.8-268.8-240v-134.4h-180.8v-182.4h180.8v-467.2h214.4v467.2h179.2l27.2 182.4h-204.8v115.2c0 52.8 16 89.6 102.4 89.6z" />
<glyph unicode="&#xe606;" glyph-name="github-octocat" d="M512 947.2c-283.2 0-512-228.8-512-512 0-225.6 147.2-417.6 350.4-486.4 25.6-4.8 35.2 11.2 35.2 24s0 52.8 0 96c-142.4-30.4-172.8 60.8-172.8 60.8-24 59.2-57.6 75.2-57.6 75.2-46.4 32 3.2 30.4 3.2 30.4 51.2-3.2 78.4-52.8 78.4-52.8 46.4-78.4 120-56 148.8-43.2 4.8 33.6 17.6 56 32 68.8-113.6 12.8-233.6 57.6-233.6 252.8 0 56 20.8 100.8 52.8 137.6-4.8 12.8-22.4 65.6 4.8 136 0 0 43.2 14.4 140.8-52.8 41.6 11.2 84.8 17.6 128 17.6s88-6.4 128-17.6c97.6 65.6 140.8 52.8 140.8 52.8 27.2-70.4 9.6-123.2 4.8-136 33.6-35.2 52.8-81.6 52.8-137.6 0-196.8-120-240-233.6-252.8 17.6-16 35.2-46.4 35.2-94.4 0-68.8 0-123.2 0-140.8 0-14.4 9.6-28.8 35.2-24 203.2 68.8 350.4 260.8 350.4 486.4 0 283.2-228.8 512-512 512zM180.8 217.6c-1.6-3.2 1.6-6.4 4.8-8s8-1.6 8 1.6c1.6 3.2-1.6 6.4-4.8 8-3.2 3.2-6.4 1.6-8-1.6zM203.2 201.6c-3.2-1.6-1.6-6.4 1.6-11.2 3.2-3.2 8-4.8 11.2-1.6 3.2 1.6 1.6 6.4-1.6 11.2-4.8 3.2-9.6 4.8-11.2 1.6zM224 176c-3.2-1.6-3.2-8 0-12.8s8-6.4 11.2-4.8c3.2 1.6 3.2 8 0 12.8s-8 8-11.2 4.8zM246.4 145.6c-3.2-3.2-1.6-9.6 3.2-12.8 4.8-4.8 9.6-4.8 12.8-1.6s1.6 9.6-3.2 12.8c-3.2 4.8-9.6 4.8-12.8 1.6zM280 121.6c-1.6-4.8 3.2-8 8-11.2 6.4-1.6 11.2 0 12.8 4.8s-3.2 8-8 11.2c-6.4 0-12.8-1.6-12.8-4.8zM320 110.4c0-4.8 4.8-8 11.2-8s11.2 3.2 11.2 8c0 4.8-4.8 8-11.2 8s-11.2-3.2-11.2-8zM369.6 123.2c-6.4-1.6-9.6-4.8-9.6-9.6s6.4-6.4 12.8-4.8c6.4 1.6 9.6 4.8 9.6 9.6-1.6 3.2-6.4 6.4-12.8 4.8z" />
<glyph unicode="&#xe607;" glyph-name="google-plus" d="M896 496v144h-80v-144h-128v-64h128v-128h80v128h128v64zM683.2 960h-286.4c-73.6 0-172.8-6.4-251.2-70.4-59.2-49.6-78.4-121.6-78.4-184 0-105.6 81.6-211.2 227.2-211.2 12.8 0 28.8 1.6 44.8 3.2-6.4-16-12.8-28.8-12.8-51.2 0-41.6 20.8-67.2 41.6-91.2-60.8-4.8-177.6-11.2-260.8-62.4-83.2-48-107.2-115.2-107.2-164.8 0-99.2 92.8-192 291.2-192 235.2 0 363.2 128 363.2 254.4 0 91.2-54.4 137.6-115.2 185.6l-49.6 38.4c-16 12.8-35.2 28.8-35.2 57.6s20.8 48 38.4 65.6c57.6 43.2 115.2 94.4 115.2 193.6 0 102.4-64 148.8-94.4 180.8h81.6l88 48zM563.2 137.6c-1.6-83.2-70.4-145.6-201.6-145.6-147.2 0-240 68.8-240 163.2s88 128 118.4 139.2c57.6 17.6 131.2 20.8 144 20.8s20.8 0 32-1.6c102.4-70.4 147.2-107.2 147.2-176zM454.4 569.6c-22.4-20.8-59.2-40-92.8-40-118.4 0-171.2 148.8-171.2 238.4 0 35.2 6.4 73.6 30.4 102.4 20.8 27.2 60.8 40 96 40 113.6 0 172.8-150.4 172.8-246.4-1.6-24-4.8-64-35.2-94.4z" />
<glyph unicode="&#xe608;" glyph-name="hamburger" d="M1024 140.8c0 28.8-22.4 51.2-51.2 51.2h-921.6c-28.8 0-51.2-22.4-51.2-51.2v-25.6c0-28.8 22.4-51.2 51.2-51.2h921.6c28.8 0 51.2 22.4 51.2 51.2v25.6zM1024 460.8c0 28.8-22.4 51.2-51.2 51.2h-921.6c-28.8 0-51.2-22.4-51.2-51.2v-25.6c0-28.8 22.4-51.2 51.2-51.2h921.6c28.8 0 51.2 22.4 51.2 51.2v25.6zM1024 780.8c0 28.8-22.4 51.2-51.2 51.2h-921.6c-28.8 0-51.2-22.4-51.2-51.2v-25.6c0-28.8 22.4-51.2 51.2-51.2h921.6c28.8 0 51.2 22.4 51.2 51.2v25.6z" />
<glyph unicode="&#xe609;" glyph-name="man" horiz-adv-x="392" d="M188.313 794.78c46.835 0 84.802 36.986 84.802 82.61s-37.967 82.61-84.802 82.61c-46.835 0-84.802-36.986-84.802-82.61s37.967-82.61 84.802-82.61zM88.056-6.189c0-25.556 21.307-46.312 47.541-46.312 26.286 0 47.562 20.756 47.562 46.312l0.042 388.537h21.172l-0.135-388.537c0-25.556 21.286-46.312 47.541-46.312s47.53 20.756 47.53 46.312l0.208 669.85h20.85v-246.848c0-49.663 66.499-49.663 66.353 0v252.113c0 54.857-33.094 108.621-98.979 108.621l-190.080 0.081c-60.044 0-97.659-47.689-97.659-107.193v-253.631c0-49.299 66.863-49.299 66.863 0v246.848h21.286l-0.094-669.84z" />
<glyph unicode="&#xe60a;" glyph-name="how-to-get-into-your-harvard" d="M33.6 665.6h38.4v-38.4h19.2v88h-19.2v-33.6h-38.4v33.6h-19.2v-88h19.2zM152 625.6c27.2 0 48 17.6 48 46.4s-19.2 46.4-48 46.4c-27.2 0-48-17.6-48-46.4s20.8-46.4 48-46.4zM152 699.2c16 0 27.2-11.2 27.2-28.8 0-16-11.2-28.8-27.2-28.8s-27.2 11.2-27.2 28.8c0 17.6 9.6 28.8 27.2 28.8zM244.8 627.2l19.2 60.8h1.6l19.2-60.8h16l25.6 88h-19.2l-14.4-57.6-19.2 57.6h-17.6l-17.6-56-14.4 56h-20.8l25.6-88zM388.8 627.2h19.2v70.4h25.6v17.6h-68.8v-17.6h24zM483.2 625.6c27.2 0 48 17.6 48 46.4s-19.2 46.4-48 46.4-48-17.6-48-46.4c1.6-28.8 20.8-46.4 48-46.4zM483.2 699.2c16 0 27.2-11.2 27.2-28.8 0-16-11.2-28.8-27.2-28.8s-27.2 11.2-27.2 28.8c0 17.6 11.2 28.8 27.2 28.8zM102.4 406.4c30.4 0 56 6.4 80 19.2v99.2h-73.6v-30.4h40v-46.4c-12.8-6.4-27.2-9.6-44.8-9.6-40 0-65.6 30.4-65.6 72 0 38.4 27.2 68.8 65.6 68.8 19.2 0 38.4-6.4 51.2-19.2l25.6 25.6c-20.8 17.6-46.4 24-76.8 24-59.2 0-102.4-40-102.4-102.4-1.6-60.8 41.6-100.8 100.8-100.8zM345.6 572.8v32h-128v-193.6h132.8v30.4h-99.2v52.8h89.6v32h-89.6v46.4zM468.8 411.2v161.6h59.2v32h-152v-32h59.2v-161.6zM561.6 604.8h8v-92.8h-8v92.8zM604.8 593.6v0l56-80h11.2v91.2h-8v-80l-57.6 80h-9.6v-91.2h8zM718.4 513.6h8v83.2h32v8h-72v-8h32zM808 510.4c28.8 0 48 20.8 48 48 0 28.8-19.2 48-48 48s-48-20.8-48-48c1.6-27.2 20.8-48 48-48zM808 600c24 0 38.4-17.6 38.4-40s-14.4-40-38.4-40c-24 0-38.4 17.6-38.4 40s14.4 40 38.4 40zM542.4 395.2l4.8 3.2c-9.6 14.4-14.4 28.8-14.4 46.4 0 16 4.8 35.2 14.4 46.4l-6.4 4.8c-9.6-14.4-16-32-16-51.2 0-16 6.4-35.2 17.6-49.6zM582.4 412.8h6.4v35.2l30.4 44.8h-8l-25.6-38.4-24 38.4h-9.6l30.4-44.8zM707.2 452.8c0 24-17.6 41.6-41.6 41.6s-41.6-17.6-41.6-41.6c0-24 17.6-41.6 41.6-41.6 25.6 0 41.6 17.6 41.6 41.6zM632 452.8c0 20.8 12.8 35.2 33.6 35.2s33.6-16 33.6-35.2c0-20.8-12.8-35.2-33.6-35.2s-33.6 16-33.6 35.2zM782.4 443.2v49.6h-8v-48c0-11.2-3.2-28.8-22.4-28.8s-22.4 16-22.4 28.8v48h-8v-49.6c0-17.6 8-33.6 28.8-33.6 24 1.6 32 17.6 32 33.6zM852.8 472c0 20.8-22.4 20.8-28.8 20.8h-20.8v-80h8v38.4h14.4l22.4-38.4h8l-24 38.4c8 1.6 20.8 6.4 20.8 20.8zM825.6 457.6h-16v28.8h16c16 0 19.2-8 19.2-14.4 0-4.8-3.2-14.4-19.2-14.4zM865.6 395.2c9.6 14.4 16 32 16 51.2 0 17.6-6.4 35.2-16 51.2l-4.8-3.2c9.6-14.4 14.4-28.8 14.4-46.4 0-16-4.8-35.2-14.4-46.4l4.8-6.4zM137.6 233.6v152h-27.2v-60.8h-70.4v60.8h-27.2v-152h27.2v67.2h70.4v-67.2zM243.2 385.6h-24l-67.2-153.6h30.4l14.4 35.2h65.6l14.4-35.2h30.4l-64 153.6zM206.4 291.2l24 62.4 24-62.4h-48zM435.2 342.4c0 33.6-27.2 43.2-57.6 43.2h-52.8v-153.6h27.2v64h19.2l35.2-64h33.6l-40 68.8c24 3.2 35.2 19.2 35.2 41.6zM353.6 321.6v41.6h24c14.4 0 30.4-1.6 30.4-20.8s-17.6-20.8-33.6-20.8h-20.8zM528 233.6l60.8 152h-28.8l-43.2-115.2-41.6 115.2h-30.4l59.2-152zM608 233.6l14.4 35.2h65.6l14.4-35.2h30.4l-65.6 153.6h-24l-67.2-153.6h32zM654.4 353.6l24-62.4h-48l24 62.4zM824 300.8c22.4 3.2 35.2 19.2 35.2 41.6 0 33.6-27.2 43.2-57.6 43.2h-52.8v-153.6h27.2v64h19.2l35.2-64h33.6l-40 68.8zM777.6 321.6v41.6h22.4c14.4 0 30.4-1.6 30.4-20.8s-17.6-20.8-33.6-20.8h-19.2zM1024 308.8c0 51.2-36.8 76.8-78.4 76.8h-60.8v-153.6h57.6c36.8 1.6 81.6 25.6 81.6 76.8zM913.6 257.6v104h25.6c33.6 0 57.6-14.4 57.6-51.2s-27.2-51.2-62.4-51.2h-20.8zM20.8 214.4l-16-35.2h4.8l3.2 8h19.2l3.2-8h4.8l-14.4 35.2h-4.8zM16 192l8 17.6 6.4-17.6h-14.4zM70.4 185.6v0l-20.8 28.8h-4.8v-35.2h3.2v30.4h1.6l19.2-30.4h4.8v35.2h-3.2zM96 214.4h-12.8v-35.2h12.8c6.4 0 17.6 4.8 17.6 17.6s-11.2 17.6-17.6 17.6zM94.4 184h-8v27.2h8c8 0 14.4-4.8 14.4-14.4s-6.4-12.8-14.4-12.8zM152 187.2v0l-12.8 27.2h-6.4v-35.2h4.8v30.4l12.8-30.4h1.6l12.8 30.4v-30.4h4.8v35.2h-6.4zM195.2 216c-11.2 0-17.6-8-17.6-17.6 0-11.2 8-17.6 17.6-17.6 11.2 0 17.6 8 17.6 17.6s-8 17.6-17.6 17.6zM195.2 182.4c-8 0-14.4 6.4-14.4 14.4s6.4 14.4 14.4 14.4c8 0 14.4-6.4 14.4-14.4-1.6-8-6.4-14.4-14.4-14.4zM243.2 204.8c0 8-6.4 9.6-14.4 9.6h-9.6v-35.2h4.8v16h4.8l9.6-16h4.8l-9.6 16c4.8 1.6 9.6 4.8 9.6 9.6zM227.2 200h-3.2v11.2h6.4c4.8 0 8 0 8-6.4 0-4.8-6.4-4.8-11.2-4.8zM254.4 196.8h16v3.2h-16v11.2h17.6v3.2h-22.4v-35.2h22.4v4.8h-17.6zM308.8 182.4c-8 0-12.8 6.4-12.8 14.4s4.8 14.4 12.8 14.4c3.2 0 6.4-1.6 8-4.8l3.2 3.2c-3.2 3.2-8 4.8-12.8 4.8-9.6 0-17.6-8-17.6-17.6 0-11.2 8-17.6 17.6-17.6 4.8 0 9.6 1.6 12.8 6.4l-3.2 3.2c0-4.8-3.2-6.4-8-6.4zM344 216c-11.2 0-17.6-8-17.6-17.6 0-11.2 8-17.6 17.6-17.6 11.2 0 17.6 8 17.6 17.6s-6.4 17.6-17.6 17.6zM344 182.4c-8 0-14.4 6.4-14.4 14.4s6.4 14.4 14.4 14.4c8 0 14.4-6.4 14.4-14.4s-6.4-14.4-14.4-14.4zM372.8 214.4h-3.2v-35.2h19.2v4.8h-16zM398.4 214.4h-4.8v-35.2h20.8v4.8h-16zM422.4 196.8h16v3.2h-16v11.2h17.6v3.2h-22.4v-35.2h24v4.8h-19.2zM465.6 195.2h8v-11.2c-3.2-1.6-6.4-1.6-8-1.6-8 0-14.4 6.4-14.4 14.4s6.4 14.4 14.4 14.4c3.2 0 6.4-1.6 9.6-4.8l3.2 3.2c-3.2 3.2-8 4.8-12.8 4.8-11.2 0-19.2-8-19.2-17.6 0-11.2 8-17.6 19.2-17.6 4.8 0 9.6 1.6 12.8 3.2v17.6h-12.8v-4.8zM489.6 196.8h17.6v3.2h-17.6v11.2h19.2v3.2h-22.4v-35.2h22.4v4.8h-19.2zM540.8 214.4l-16-35.2h4.8l3.2 8h17.6l3.2-8h6.4l-16 35.2h-3.2zM534.4 192l8 17.6 6.4-17.6h-14.4zM576 214.4h-12.8v-35.2h12.8c6.4 0 17.6 4.8 17.6 17.6s-9.6 17.6-17.6 17.6zM576 184h-8v27.2h8c8 0 14.4-4.8 14.4-14.4-1.6-9.6-6.4-12.8-14.4-12.8zM619.2 187.2v0l-12.8 27.2h-6.4v-35.2h4.8v30.4l12.8-30.4h1.6l12.8 30.4v-30.4h4.8v35.2h-6.4zM644.8 214.4h4.8v-35.2h-4.8v35.2zM668.8 200c-4.8 1.6-8 3.2-8 6.4 0 4.8 3.2 6.4 8 6.4 3.2 0 4.8-1.6 6.4-3.2l3.2 3.2c-3.2 3.2-6.4 4.8-9.6 4.8-6.4 0-11.2-3.2-11.2-9.6s3.2-8 8-9.6c6.4-1.6 9.6-3.2 9.6-6.4s-4.8-6.4-8-6.4c-3.2 0-6.4 1.6-8 3.2l-3.2-4.8c1.6-3.2 6.4-4.8 11.2-4.8 6.4 0 12.8 3.2 12.8 9.6-1.6 8-6.4 9.6-11.2 11.2zM696 200c-4.8 1.6-8 3.2-8 6.4 0 4.8 3.2 6.4 8 6.4 3.2 0 4.8-1.6 6.4-3.2l3.2 3.2c-3.2 3.2-6.4 4.8-9.6 4.8-6.4 0-11.2-3.2-11.2-9.6s3.2-8 8-9.6c6.4-1.6 9.6-3.2 9.6-6.4s-4.8-6.4-8-6.4c-3.2 0-6.4 1.6-8 3.2l-3.2-3.2c1.6-3.2 6.4-4.8 11.2-4.8 6.4 0 12.8 3.2 12.8 9.6-1.6 6.4-6.4 8-11.2 9.6zM713.6 214.4h4.8v-35.2h-4.8v35.2zM742.4 216c-11.2 0-17.6-8-17.6-17.6 0-11.2 8-17.6 17.6-17.6 11.2 0 17.6 8 17.6 17.6s-6.4 17.6-17.6 17.6zM742.4 182.4c-8 0-14.4 6.4-14.4 14.4s6.4 14.4 14.4 14.4c8 0 14.4-6.4 14.4-14.4s-6.4-14.4-14.4-14.4zM793.6 185.6v0l-20.8 28.8h-4.8v-35.2h3.2v30.4l20.8-30.4h4.8v35.2h-3.2zM816 200c-4.8 1.6-8 3.2-8 6.4 0 4.8 3.2 6.4 8 6.4 3.2 0 4.8-1.6 6.4-3.2l3.2 3.2c-3.2 3.2-6.4 4.8-9.6 4.8-6.4 0-11.2-3.2-11.2-9.6s3.2-8 8-9.6c6.4-1.6 9.6-3.2 9.6-6.4s-4.8-6.4-8-6.4c-3.2 0-6.4 1.6-8 3.2l-3.2-3.2c1.6-3.2 6.4-4.8 11.2-4.8 6.4 0 12.8 3.2 12.8 9.6s-6.4 8-11.2 9.6zM859.2 214.4l-16-35.2h4.8l3.2 8h17.6l3.2-8h4.8l-14.4 35.2h-3.2zM852.8 192l8 17.6 6.4-17.6h-14.4zM894.4 214.4h-12.8v-35.2h12.8c6.4 0 17.6 4.8 17.6 17.6s-11.2 17.6-17.6 17.6zM892.8 184h-8v27.2h8c8 0 14.4-4.8 14.4-14.4s-6.4-12.8-14.4-12.8zM929.6 185.6v0l-11.2 28.8h-4.8l12.8-35.2h4.8l12.8 35.2h-3.2zM948.8 214.4h4.8v-35.2h-4.8v35.2zM977.6 182.4c-8 0-12.8 6.4-12.8 14.4s4.8 14.4 12.8 14.4c3.2 0 6.4-1.6 8-4.8l3.2 3.2c-3.2 3.2-8 4.8-12.8 4.8-9.6 0-17.6-8-17.6-17.6 0-11.2 8-17.6 17.6-17.6 4.8 0 9.6 1.6 12.8 6.4l-3.2 3.2c0-4.8-4.8-6.4-8-6.4zM1000 196.8h17.6v3.2h-17.6v11.2h17.6v3.2h-20.8v-35.2h22.4v4.8h-19.2z" />
<glyph unicode="&#xe60b;" glyph-name="link" d="M489.6 374.4c0 0 0 0 0 0s0 0 0 0 0 0 0 0zM544 201.6c-3.2 0-6.4 1.6-8 1.6 0 0 0 0 0 0 1.6 0 4.8 0 8-1.6zM371.2 350.4v0c1.6-4.8 4.8-11.2 8-17.6v0c-3.2 4.8-6.4 11.2-8 17.6zM379.2 332.8c3.2-6.4 6.4-11.2 8-14.4-3.2 4.8-6.4 9.6-8 14.4v0zM388.8 315.2v0c0 1.6-1.6 1.6-1.6 1.6s1.6-1.6 1.6-1.6zM531.2 204.8c-6.4 1.6-12.8 4.8-19.2 6.4 0 0 0 0 0 0 0 1.6 8-1.6 19.2-6.4zM534.4 204.8c0 0 0 0 0 0-1.6 0-1.6 0-3.2 1.6 1.6-1.6 3.2-1.6 3.2-1.6zM764.8 707.2h-156.8c-12.8 0-27.2-1.6-40-3.2-3.2 0-4.8-1.6-8-1.6 48-27.2 88-68.8 113.6-116.8h99.2c75.2 0 137.6-60.8 137.6-137.6 0-75.2-60.8-137.6-137.6-137.6h-171.2c-33.6 0-65.6 12.8-89.6 33.6v0c0 0 0 0 0 0-4.8 4.8-9.6 8-12.8 11.2-8 8-11.2 12.8-11.2 12.8s0 0 0 0v0c-16 22.4-24 49.6-24 78.4s8 54.4 24 76.8c0 0 1.6 1.6 1.6 1.6-17.6 16-41.6 24-67.2 24h-52.8c-14.4-32-20.8-65.6-20.8-102.4s8-72 20.8-102.4c3.2-6.4 4.8-11.2 8-17.6 3.2-4.8 4.8-9.6 8-14.4 0 0 0 0 0-1.6s1.6-1.6 1.6-1.6c28.8-46.4 72-83.2 123.2-102.4 6.4-3.2 12.8-4.8 19.2-6.4 0 0 0 0 1.6 0s1.6 0 3.2-1.6c3.2-1.6 4.8-1.6 8-1.6 0 0 0 0 0 0 20.8-4.8 41.6-8 64-8h156.8c145.6 0 260.8 116.8 260.8 259.2s-115.2 259.2-259.2 259.2zM259.2 188.8h156.8c12.8 0 27.2 1.6 40 3.2 3.2 0 6.4 1.6 8 1.6-48 27.2-88 68.8-113.6 116.8h-99.2c-75.2 0-137.6 60.8-137.6 137.6 0 75.2 60.8 137.6 137.6 137.6h171.2c33.6 0 65.6-12.8 89.6-33.6v0c0 0 0 0 0 0 4.8-4.8 9.6-8 12.8-11.2 8-8 11.2-12.8 11.2-12.8s0 0 0 0 0 0 0 0c16-22.4 24-49.6 24-78.4s-8-54.4-24-76.8c0 0-1.6-1.6-1.6-1.6 17.6-16 41.6-24 67.2-24h52.8c14.4 32 20.8 65.6 20.8 102.4s-8 72-20.8 102.4c-3.2 6.4-4.8 11.2-8 17.6-3.2 4.8-4.8 9.6-8 14.4 0 0 0 0 0 1.6s-1.6 1.6-1.6 1.6c-28.8 46.4-72 83.2-123.2 102.4-6.4 3.2-12.8 4.8-19.2 6.4 0 0 0 0-1.6 0s-1.6 0-3.2 1.6c-3.2 1.6-4.8 1.6-8 1.6 0 0 0 0 0 0-20.8 4.8-41.6 8-64 8h-156.8c-145.6 0-260.8-116.8-260.8-259.2s115.2-259.2 259.2-259.2zM544 201.6c0 0 0 0 0 0s0 0 0 0zM531.2 204.8c0 0 0 0 0 0s0 0 0 0zM489.6 374.4c0 0 3.2-4.8 11.2-12.8 0 0 0 0 0 0-4.8 3.2-8 8-11.2 12.8 0 0 0 0 0 0zM387.2 318.4c0 0 0 0 0 0s0 0 0 0zM499.2 361.6c0-1.6 0-1.6 0 0 3.2-3.2 6.4-8 12.8-12.8 0 0 0 0 0 0-4.8 3.2-8 8-12.8 12.8zM512 348.8c0 0 0 0 0 0s0 0 0 0 0 0 0 0z" />
<glyph unicode="&#xe60c;" glyph-name="linked-in" d="M248-64h-206.4v688h206.4v-688zM145.6 708.8c-68.8 0-126.4 56-126.4 126.4 0 68.8 56 124.8 126.4 124.8 68.8 0 126.4-56 126.4-126.4-1.6-68.8-57.6-124.8-126.4-124.8zM1004.8-64h-206.4v355.2c0 86.4-36.8 144-113.6 144-59.2 0-70.4-40-86.4-78.4-6.4-14.4-6.4-32-6.4-51.2v-369.6h-206.4v688h206.4v-126.4c0 43.2 48 120 211.2 120s201.6-4.8 201.6-233.6c0-227.2 0-448 0-448z" />
<glyph unicode="&#xe60d;" glyph-name="logo-21" d="M512 960c-283.2 0-512-228.8-512-512s228.8-512 512-512c283.2 0 512 228.8 512 512s-228.8 512-512 512zM504 809.6c57.6 0 107.2-11.2 156.8-32-60.8-3.2-115.2-28.8-156.8-67.2-41.6 38.4-96 64-156.8 67.2 51.2 20.8 100.8 32 156.8 32zM595.2 598.4c-14.4 3.2-24 14.4-27.2 27.2-4.8 25.6 16 46.4 41.6 41.6 14.4-3.2 24-14.4 27.2-27.2 4.8-25.6-16-46.4-41.6-41.6zM441.6 625.6c-3.2-14.4-14.4-25.6-27.2-27.2-24-4.8-46.4 17.6-41.6 41.6 3.2 14.4 14.4 25.6 27.2 27.2 25.6 4.8 46.4-16 41.6-41.6zM827.2 360c0-1.6 0-4.8 0-6.4-1.6-12.8-1.6-25.6-3.2-38.4-1.6-17.6-12.8-11.2-12.8-11.2l-14.4 14.4c-4.8 4.8-11.2 4.8-16-1.6-3.2-6.4-9.6-14.4-17.6-22.4-44.8-65.6-105.6-124.8-177.6-174.4h-1.6c0 0 0 0-1.6 0 0 0-1.6 0-1.6-1.6-24-16-78.4-46.4-78.4-46.4s-54.4 28.8-78.4 46.4c0 0-1.6 0-1.6 1.6 0 0 0 0-1.6 0h-1.6c-72 49.6-132.8 108.8-177.6 174.4-8 9.6-14.4 17.6-17.6 22.4s-11.2 6.4-16 1.6l-9.6-14.4c0 0-11.2-6.4-12.8 11.2-1.6 12.8-3.2 25.6-3.2 38.4 0 1.6 0 4.8 0 6.4 0 4.8-1.6 11.2-1.6 17.6-4.8 185.6 76.8 300.8 83.2 308.8 0-1.6 0-1.6-1.6-3.2 0-1.6 0-1.6-1.6-3.2 1.6 1.6-4.8-25.6-4.8-41.6 0-80 65.6-145.6 145.6-145.6 30.4 0 57.6 9.6 81.6 25.6l3.2 3.2c8 6.4 9.6 9.6 9.6 12.8 0 1.6-1.6 4.8-1.6 6.4-17.6 20.8-28.8 49.6-28.8 78.4 0 16 17.6 25.6 33.6 25.6h11.2c17.6 0 33.6-8 33.6-25.6 0-30.4-11.2-57.6-28.8-78.4-1.6-1.6-1.6-3.2-1.6-6.4s0-4.8 9.6-12.8l3.2-3.2c24-16 51.2-25.6 81.6-25.6 80 0 144 65.6 144 145.6 0 16-6.4 43.2-4.8 41.6 0 1.6 0 1.6-1.6 3.2 0 1.6 0 1.6-1.6 3.2 6.4-8 86.4-123.2 83.2-308.8 1.6-6.4 1.6-12.8 0-17.6z" />
<glyph unicode="&#xe60e;" glyph-name="logo" horiz-adv-x="4344" d="M2928.485 475.152c13.576 13.576 19.394 40.727 7.758 65.939-13.576 27.152-40.727 38.788-56.242 21.333s-21.333-46.545-5.818-73.697c13.576-25.212 40.727-27.152 54.303-13.576zM525.576 960c-283.152 0-512-228.848-512-512s228.848-512 512-512c283.152 0 512 228.848 512 512s-230.788 512-512 512zM517.818 808.727c56.242 0 106.667-11.636 157.091-31.030-60.121-1.939-116.364-27.152-157.091-67.879-40.727 38.788-96.97 64-157.091 67.879 50.424 21.333 100.848 31.030 157.091 31.030zM608.97 597.333c-13.576 1.939-25.212 13.576-27.152 27.152-3.879 25.212 15.515 46.545 40.727 40.727 13.576-1.939 25.212-13.576 27.152-27.152 3.879-23.273-15.515-44.606-40.727-40.727zM453.818 626.424c-1.939-13.576-13.576-25.212-27.152-27.152-25.212-5.818-46.545 17.455-40.727 40.727 1.939 13.576 13.576 25.212 27.152 27.152 25.212 3.879 46.545-17.455 40.727-40.727zM841.697 358.788c0-1.939 0-3.879 0-5.818 0-13.576-1.939-25.212-3.879-38.788-1.939-17.455-13.576-11.636-13.576-11.636l-13.576 13.576c-3.879 3.879-11.636 3.879-15.515-1.939s-9.697-13.576-17.455-23.273c-44.606-65.939-104.727-124.121-178.424-174.545v0c0 0 0 0 0 0s0 0-1.939 0c-25.212-15.515-77.576-46.545-77.576-46.545s-54.303 29.091-77.576 46.545c0 0 0 0-1.939 0 0 0 0 0 0 0v0c-71.758 48.485-131.879 108.606-178.424 174.545-7.758 9.697-13.576 17.455-17.455 23.273s-11.636 5.818-15.515 1.939l-13.576-13.576c0 0-11.636-5.818-13.576 11.636-1.939 11.636-1.939 25.212-3.879 38.788 0 1.939 0 3.879 0 5.818 0 5.818 0 11.636 0 17.455-3.879 184.242 75.636 300.606 83.394 308.364 0 0 0-1.939 0-1.939s0-1.939 0-3.879c0 1.939-3.879-25.212-3.879-42.667 0-81.455 65.939-145.455 145.455-145.455 31.030 0 58.182 9.697 81.455 25.212l3.879 1.939c7.758 5.818 9.697 9.697 9.697 11.636s0 3.879-1.939 5.818c-17.455 21.333-29.091 48.485-29.091 79.515 0 15.515 17.455 25.212 34.909 25.212h9.697c17.455 0 34.909-7.758 34.909-25.212 0-29.091-9.697-58.182-29.091-79.515-1.939-1.939-1.939-3.879-1.939-5.818s0-5.818 9.697-11.636l3.879-1.939c23.273-15.515 50.424-25.212 81.455-25.212 79.515 0 145.455 65.939 145.455 145.455 0 15.515-5.818 42.667-5.818 42.667s0 1.939 0 3.879c0 0 0 1.939 0 1.939 5.818-7.758 87.273-124.121 81.455-308.364-9.697-5.818-9.697-11.636-9.697-17.455zM3591.758 308.364c-3.879 17.455-15.515 32.97-38.788 42.667 42.667 77.576 81.455 141.576 110.545 195.879 40.727 73.697 44.606 120.242 31.030 149.333-5.818 13.576-15.515 13.576-25.212 1.939-38.788-52.364-126.061-207.515-190.061-335.515-64-3.879-126.061-21.333-193.939-29.091 42.667 81.455 83.394 151.273 112.485 205.576 36.848 69.818 38.788 118.303 25.212 145.455-5.818 11.636-15.515 13.576-23.273 1.939-40.727-56.242-131.879-226.909-193.939-356.848-13.576 0-27.152 1.939-40.727 3.879-17.455 1.939-19.394-3.879-13.576-15.515 3.879-7.758 11.636-21.333 32.97-31.030-7.758-19.394-15.515-36.848-23.273-50.424 0 3.879 0 7.758-1.939 11.636-3.879 13.576-15.515 11.636-21.333 0-36.848-73.697-93.091-143.515-135.758-141.576-40.727 1.939-52.364 62.061-19.394 133.818 36.848 83.394 93.091 178.424 131.879 244.364 25.212 3.879 54.303 7.758 77.576 3.879 15.515 0 19.394 7.758 11.636 19.394-7.758 13.576-23.273 31.030-60.121 29.091 23.273 50.424 23.273 83.394 13.576 110.545-5.818 11.636-15.515 13.576-23.273 0-17.455-21.333-44.606-67.879-75.636-122.182-27.152-3.879-54.303-5.818-81.455-3.879-15.515 1.939-21.333-5.818-11.636-19.394 7.758-11.636 31.030-25.212 64-25.212-42.667-77.576-83.394-160.97-104.727-209.455-3.879-7.758-5.818-13.576-7.758-21.333-1.939-1.939-1.939-1.939-3.879-3.879-29.091-67.879-83.394-131.879-128-133.818-31.030-1.939-32.97 36.848-9.697 93.091 21.333 48.485 62.061 116.364 83.394 159.030 23.273 48.485 15.515 91.152 1.939 106.667-7.758 9.697-15.515 5.818-23.273-5.818-36.848-50.424-100.848-166.788-126.061-238.545 0 0 0 0 0 0-34.909-60.121-75.636-112.485-110.545-114.424s-48.485 44.606-21.333 100.848c25.212 48.485 73.697 114.424 91.152 159.030 19.394 48.485 11.636 106.667-23.273 108.606-32.97 1.939-98.909-44.606-145.455-91.152 13.576 42.667-5.818 95.030-38.788 96.97-34.909 1.939-108.606-56.242-153.212-106.667 15.515 38.788 17.455 77.576 1.939 104.727-5.818 9.697-13.576 11.636-21.333 0-60.121-89.212-128-221.091-151.273-287.030-31.030-48.485-69.818-85.333-98.909-87.273-32.97-1.939-32.97 38.788-5.818 95.030 48.485 104.727 143.515 265.697 190.061 351.030 40.727 73.697 44.606 116.364 31.030 149.333-5.818 13.576-13.576 13.576-23.273 0-34.909-50.424-110.545-184.242-162.909-285.091 1.939 36.848-19.394 65.939-58.182 65.939-48.485 0-128-44.606-205.576-159.030-81.455-118.303-62.061-242.424 29.091-242.424 46.545 0 91.152 36.848 122.182 75.636 0-46.545 27.152-75.636 79.515-79.515 31.030-1.939 65.939 15.515 95.030 40.727 1.939-15.515 7.758-25.212 19.394-34.909 9.697-7.758 15.515-3.879 19.394 5.818 38.788 93.091 87.273 184.242 145.455 246.303 62.061 67.879 110.545 95.030 122.182 91.152 19.394-7.758-87.273-141.576-118.303-224.97-29.091-69.818-15.515-108.606 1.939-124.121 9.697-9.697 17.455-7.758 23.273 5.818 40.727 93.091 89.212 186.182 170.667 267.636 64 64 96.97 75.636 104.727 71.758 15.515-5.818-73.697-114.424-108.606-195.879-36.848-81.455-5.818-149.333 81.455-149.333 40.727 0 85.333 25.212 116.364 60.121 5.818-36.848 31.030-60.121 75.636-60.121 48.485 0 100.848 31.030 131.879 79.515 9.697-48.485 44.606-77.576 85.333-79.515 64-1.939 120.242 54.303 143.515 91.152-11.636-48.485-3.879-73.697 9.697-91.152 5.818-9.697 13.576-5.818 17.455 3.879 29.091 65.939 58.182 129.939 89.212 192 46.545 0 122.182 13.576 193.939 21.333-19.394-40.727-34.909-75.636-40.727-95.030-19.394-60.121-11.636-89.212 3.879-108.606 5.818-9.697 13.576-7.758 17.455 1.939 32.97 73.697 65.939 145.455 100.848 207.515 21.333 1.939 38.788 0 54.303-3.879 0-1.939 1.939 3.879 0 11.636zM1840.485 108.606c-38.788 1.939-27.152 87.273 25.212 170.667 54.303 87.273 126.061 149.333 157.091 147.394 29.091-1.939 13.576-62.061-42.667-172.606-48.485-89.212-100.848-147.394-139.636-145.455zM1702.788 298.667c19.394 108.606 46.545 207.515 71.758 285.091 9.697 27.152 9.697 48.485 0 71.758-9.697 25.212-13.576 27.152-23.273 40.727s-19.394 13.576-34.909 1.939c-104.727-85.333-242.424-279.273-318.061-413.091-15.515 1.939-31.030 3.879-44.606 5.818-15.515 1.939-17.455-1.939-11.636-15.515 3.879-7.758 11.636-21.333 32.97-32.97-11.636-21.333-21.333-40.727-27.152-56.242-21.333-54.303-17.455-85.333-5.818-100.848 5.818-7.758 13.576-7.758 17.455 1.939 19.394 42.667 44.606 91.152 75.636 141.576 46.545-1.939 126.061 11.636 195.879 15.515-3.879-29.091-3.879-54.303-3.879-75.636 1.939-56.242 17.455-81.455 36.848-89.212 9.697-3.879 15.515-1.939 15.515 9.697 1.939 52.364 7.758 106.667 15.515 157.091 17.455-1.939 31.030-3.879 42.667-5.818 9.697-3.879 13.576 0 11.636 9.697-7.758 19.394-17.455 38.788-46.545 48.485zM1638.788 304.485c-46.545-1.939-106.667-11.636-166.788-17.455 75.636 116.364 164.848 236.606 238.545 320-29.091-77.576-56.242-199.758-71.758-302.545zM4260.848 475.152c-25.212 0-56.242-15.515-85.333-40.727 31.030 54.303 73.697 122.182 87.273 149.333 40.727 73.697 40.727 118.303 25.212 145.455-7.758 13.576-15.515 13.576-25.212 1.939-67.879-95.030-259.879-457.697-287.030-539.152 0 0 0 0 0-1.939-32.97-46.545-67.879-83.394-98.909-85.333-34.909-1.939-38.788 38.788-13.576 95.030 23.273 50.424 71.758 124.121 93.091 168.727 23.273 48.485 15.515 93.091 1.939 110.545-7.758 9.697-15.515 7.758-25.212-5.818-31.030-42.667-60.121-110.545-122.182-209.455-52.364-85.333-106.667-155.152-145.455-151.273-23.273 1.939-25.212 36.848-5.818 85.333 21.333 46.545 40.727 87.273 77.576 145.455 34.909 56.242 40.727 100.848 19.394 131.879-7.758 9.697-17.455 9.697-25.212-1.939-64-89.212-114.424-186.182-135.758-250.182s-19.394-137.697 50.424-141.576c54.303-3.879 106.667 46.545 141.576 93.091-7.758-56.242 17.455-96.97 81.455-96.97 34.909 0 69.818 17.455 98.909 42.667 1.939-15.515 7.758-25.212 13.576-34.909 5.818-7.758 11.636-7.758 15.515 3.879 9.697 21.333 19.394 44.606 29.091 64 17.455-42.667 50.424-69.818 102.788-69.818 56.242 0 118.303 56.242 164.848 159.030 54.303 116.364 50.424 232.727-32.97 232.727zM4224 261.818c-56.242-114.424-102.788-143.515-135.758-135.758-27.152 5.818-38.788 36.848-40.727 65.939 36.848 75.636 83.394 157.091 128 203.636 29.091 31.030 50.424 40.727 71.758 38.788s32.97-62.061-23.273-172.606z" />
<glyph unicode="&#xe60f;" glyph-name="magnifying-glass" d="M995.2 88l-273.6 275.2c36.8 59.2 59.2 131.2 59.2 206.4 0 216-174.4 390.4-390.4 390.4s-390.4-174.4-390.4-390.4c0-216 174.4-390.4 390.4-390.4 76.8 0 147.2 22.4 208 59.2l273.6-273.6c19.2-19.2 43.2-28.8 68.8-28.8 0 0 0 0 0 0 20.8 0 43.2 8 59.2 24s24 38.4 24 60.8c0 24-9.6 48-28.8 67.2zM390.4 352c-120 0-217.6 97.6-217.6 217.6s97.6 217.6 217.6 217.6c120 0 217.6-97.6 217.6-217.6s-97.6-217.6-217.6-217.6z" />
<glyph unicode="&#xe610;" glyph-name="microphone" d="M512 281.6c88 0 158.4 70.4 158.4 158.4v361.6c0 88-70.4 158.4-158.4 158.4s-158.4-70.4-158.4-158.4v-360c0-88 70.4-160 158.4-160zM748.8 572.8c-17.6 0-32-14.4-32-32v-99.2c0-113.6-91.2-204.8-204.8-204.8s-204.8 91.2-204.8 204.8v99.2c0 17.6-14.4 32-32 32s-32-14.4-32-32v-99.2c0-148.8 121.6-270.4 270.4-270.4s270.4 121.6 270.4 270.4v99.2c-1.6 17.6-16 32-35.2 32zM646.4 1.6h-102.4v145.6c-11.2-1.6-20.8-1.6-32-1.6s-22.4 1.6-32 1.6v-145.6h-102.4c-17.6 0-32-14.4-32-32v-32h334.4v32c-1.6 17.6-16 32-33.6 32z" />
<glyph unicode="&#xe611;" glyph-name="woman" horiz-adv-x="455" d="M381.999 703.945l69.168-232.582c13.796-50.028-48.415-70.741-63.248-21.987l-62.24 213.547h-18.115l107.878-379.867h-99.389v-296.146c0-50.503-74.258-50.251-74.258 0v298.087h-30.27l0.049-297.673c0-50.918-74.564-50.918-74.564 0l-0.020 295.732h-99.705l107.038 379.867h-16.741l-62.25-214.306c-14.824-46.713-77.578-27.536-63.209 22.522l69.109 232.805c7.402 26.536 30.092 73.622 86.917 73.622h136.182c56.301 0 79.14-47.461 87.668-73.622zM226.635 794.944c44.559 0 80.681 36.949 80.681 82.528s-36.122 82.528-80.681 82.528c-44.559 0-80.681-36.949-80.681-82.528s36.122-82.528 80.681-82.528z" />
<glyph unicode="&#xe612;" glyph-name="robot" d="M480 840v-112c0-19.2 12.8-35.2 32-35.2s32 16 32 35.2v110.4c32 11.2 38.4 32 38.4 56 0 36.8-24 65.6-60.8 65.6-35.2 0-67.2-28.8-67.2-65.6 1.6-22.4 9.6-43.2 25.6-54.4zM720 0h-406.4c-17.6 0-32-14.4-32-32s14.4-32 32-32h406.4c17.6 0 32 14.4 32 32s-14.4 32-32 32zM878.4 656h-720c-75.2 0-142.4-67.2-142.4-142.4v-385.6h976v385.6c0 75.2-40 142.4-113.6 142.4zM296 340.8c-48 0-88 40-88 89.6s40 89.6 88 89.6 88-40 88-89.6c0-49.6-38.4-89.6-88-89.6zM747.2 340.8c-48 0-88 40-88 89.6s40 89.6 88 89.6c48 0 88-40 88-89.6s-40-89.6-88-89.6zM817.6 96h-608c-17.6 0-32-14.4-32-32s14.4-32 32-32h608c17.6 0 32 14.4 32 32s-14.4 32-32 32z" />
<glyph unicode="&#xe613;" glyph-name="start" d="M857.6 300.8c22.4 70.4 188.8 204.8 164.8 275.2-24 68.8-240 76.8-300.8 118.4s-140.8 238.4-216 236.8c-73.6-1.6-147.2-200-206.4-243.2s-275.2-57.6-296-128c-22.4-70.4 148.8-200 172.8-268.8s-28.8-275.2 32-316.8c60.8-41.6 240 76.8 313.6 76.8 75.2 1.6 256-112 316.8-67.2 57.6 43.2-1.6 246.4 19.2 316.8z" />
<glyph unicode="&#xe614;" glyph-name="talking" d="M961.6 960h-896c-35.2 0-65.6-28.8-65.6-64v-320c0-35.2 30.4-64 65.6-64h94.4v-64c0-8 0-16 8-19.2 3.2-1.6 3.2-1.6 6.4-1.6 4.8 0 8 1.6 12.8 4.8l99.2 80h152l57.6-76.8c4.8-4.8 9.6-8 17.6-8 6.4 0 12.8 3.2 17.6 8l57.6 76.8h152l100.8-80c3.2-3.2 8-4.8 12.8-4.8 3.2 0 8 0 11.2 1.6 8 3.2 14.4 11.2 14.4 19.2v64h81.6c35.2 0 62.4 28.8 62.4 64v320c0 35.2-27.2 64-62.4 64zM931.2 192h-169.6c-35.2 0-62.4-27.2-64-62.4l-17.6-112-17.6 112c-1.6 35.2-28.8 62.4-64 62.4h-169.6c-35.2 0-62.4-27.2-64-62.4l-17.6-112-17.6 112c-1.6 35.2-28.8 62.4-64 62.4h-171.2c-35.2 0-62.4-27.2-64-62.4l-28.8-193.6h1024l-30.4 193.6c0 35.2-28.8 62.4-64 62.4zM180.8 212.8c52.8 0 96 43.2 96 96s-43.2 96-96 96c-52.8 0-96-43.2-96-96s43.2-96 96-96zM846.4 212.8c52.8 0 96 43.2 96 96s-43.2 96-96 96c-52.8 0-96-43.2-96-96s43.2-96 96-96zM513.6 212.8c52.8 0 96 43.2 96 96s-43.2 96-96 96c-52.8 0-96-43.2-96-96s43.2-96 96-96z" />
<glyph unicode="&#xe615;" glyph-name="tumblr" d="M756.8 142.4c-19.2-9.6-56-17.6-83.2-17.6-81.6-3.2-97.6 57.6-97.6 100.8v318.4h206.4v155.2h-206.4v260.8c0 0-147.2 0-150.4 0s-6.4-1.6-8-8c-8-80-46.4-219.2-201.6-275.2v-132.8h104v-334.4c0-115.2 84.8-276.8 307.2-273.6 75.2 1.6 158.4 33.6 177.6 59.2l-48 147.2z" />
<glyph unicode="&#xe616;" glyph-name="twitter-bird" d="M1024 764.8c-36.8-17.6-78.4-28.8-120-35.2 43.2 28.8 75.2 70.4 91.2 118.4-38.4-24-84.8-41.6-129.6-49.6-38.4 41.6-96 65.6-155.2 65.6-115.2 0-211.2-92.8-211.2-209.6 0-17.6 1.6-35.2 6.4-48-174.4 8-331.2 91.2-435.2 219.2-17.6-30.4-28.8-67.2-28.8-107.2 0-72 36.8-137.6 96-176-35.2 3.2-67.2 11.2-96 28.8v-1.6c0-104 73.6-187.2 169.6-206.4-17.6-6.4-35.2-8-56-8-12.8 0-25.6 1.6-38.4 4.8 25.6-84.8 104-144 198.4-145.6-72-54.4-163.2-91.2-260.8-91.2-17.6 0-35.2 1.6-52.8 4.8 94.4-60.8 203.2-96 321.6-96 387.2 0 595.2 316.8 595.2 595.2 0 11.2 0 19.2 0 28.8 41.6 30.4 76.8 67.2 105.6 108.8z" />
<glyph unicode="&#xe617;" glyph-name="x" horiz-adv-x="956" d="M384.248 430.251l-372.52 372.52 77.235 77.235 372.52-372.52 390.695 390.695 77.235-77.235-390.695-390.695 390.695-390.695-77.235-77.235-390.695 390.695-372.52-372.52-77.235 77.235 372.52 372.52z" />
<glyph unicode="&#xe618;" glyph-name="carat-down" horiz-adv-x="2176" d="M1088 195.844l-874.43 680.398c-38.712 30.079-96.113 25.141-128.397-10.885s-27.050-89.759 11.605-119.838l932.825-725.768c16.896-13.221 37.66-19.752 58.396-19.752 20.764 0 41.5 6.531 58.396 19.752l932.825 725.768c38.656 30.079 43.889 83.785 11.605 119.838-32.341 36.132-89.628 41.017-128.397 10.885l-874.43-680.398z" />
<glyph unicode="&#xe619;" glyph-name="carat-left" horiz-adv-x="448" d="M438.121 10.785l-340.199 437.215 340.199 437.215c15.039 19.356 12.57 48.056-5.442 64.198s-44.879 13.525-59.919-5.803l-362.884-466.413c-6.61-8.448-9.876-18.83-9.876-29.198 0-10.382 3.265-20.75 9.876-29.198l362.884-466.413c15.039-19.328 41.893-21.945 59.919-5.803 18.066 16.17 20.508 44.814 5.442 64.198v0z" />
<glyph unicode="&#xe61a;" glyph-name="carat-right" horiz-adv-x="448" d="M9.879 885.215l340.199-437.215-340.199-437.215c-15.039-19.356-12.57-48.056 5.442-64.198s44.879-13.525 59.919 5.803l362.884 466.413c6.61 8.448 9.876 18.83 9.876 29.198 0 10.382-3.265 20.75-9.876 29.198l-362.884 466.413c-15.039 19.328-41.893 21.945-59.919 5.803-18.066-16.17-20.508-44.814-5.442-64.198v0z" />
<glyph unicode="&#xe61b;" glyph-name="envelope" d="M994 832h-964c-16.572 0-30-13.428-30-30v-712.011c0-16.572 13.428-30 30-30h964c16.572 0 30 13.428 30 30v712.011c0 16.572-13.428 30-30 30v0zM902.884 772l-390.878-288.709-390.902 288.709h781.779zM60 119.989v622.562l434.174-320.689c5.292-3.912 11.556-5.868 17.82-5.868s12.516 1.956 17.82 5.868l434.186 320.689v-622.562h-904z" />
<glyph unicode="&#xe61c;" glyph-name="phone" d="M801.297-64h-0.037c-197.842 0.012-422.246 202.633-509.538 289.742-95.496 95.288-314.877 339.086-289.729 544.437 9.459 77.199 52.356 139.221 127.506 184.348 6.046 3.633 12.958 5.473 20.54 5.473 59.109 0 175.681-137.977 222.868-204.79 67.447-95.508 57.89-122.46 54.294-132.602-11.434-32.23-32.705-51.027-51.466-67.593-16.42-14.506-30.597-27.025-37.825-47.394-1-4.949 5.559-31.669 48.394-84.318 67.313-82.733 156.006-149.351 184.567-149.351 21.076 7.216 33.62 21.393 48.114 37.813 16.578 18.76 35.363 40.019 67.605 51.466 4.535 1.609 9.557 2.426 14.92 2.426 67.959 0 264.545-161.224 310.684-242.664 4.888-8.643 19.784-34.948 6.302-57.439-51.527-85.975-124.617-129.554-217.2-129.554v0zM151.734 910.972c-60.657-37.265-93.813-85.293-101.335-146.718-15.64-127.665 87.45-316.084 275.76-503.991 83.013-82.83 295.459-275.492 475.126-275.504h0.024c74.322 0 131.175 33.729 173.694 103.078-8.045 48.187-222.039 228.268-273.151 229.048-19.723-7.338-32.072-21.296-46.309-37.411-16.59-18.772-35.387-40.044-67.642-51.49-5.217-1.853-10.934-2.791-17.017-2.791-64.594 0-187.858 116.17-244.346 196.16-31.791 45.005-43.103 78.552-34.571 102.578 11.434 32.254 32.718 51.051 51.478 67.63 16.139 14.25 30.109 26.611 37.435 46.37 0.268 17.566-39.495 88.011-113.732 172.182-60.962 69.129-101.883 97.812-115.414 100.859v0z" />
</font>
</defs>
</svg>
